<svg width="57" height="57" viewBox="0 0 57 57" fill="none" xmlns="http://www.w3.org/2000/svg">
<circle cx="28.5" cy="28.5" r="28.5" fill="white"/>
<g clip-path="url(#clip0)">
<path d="M20.9783 37.6777C20.7644 37.6777 20.6218 37.6777 20.408 37.6064L15.0613 35.8954C14.6336 35.7529 13.7068 35.2538 14.1345 33.8281L16.8435 25.3447L25.0418 27.9824L22.3328 36.3945C22.1902 37.1074 21.6199 37.6064 20.9783 37.6777Z" fill="#F4A23F"/>
<path d="M25.0839 28.0139L26.0226 25.0955L17.8104 22.4541L16.8717 25.3725L25.0839 28.0139Z" fill="#FBCF4C"/>
<path d="M22.8318 27.2695L20.1941 35.539C20.0515 36.2519 19.4812 36.7509 18.7683 36.7509C18.5544 36.7509 18.4119 36.7509 18.198 36.6796L14.4197 35.4677C14.6335 35.6816 14.8474 35.7529 15.0613 35.8954L20.408 37.6064C20.5505 37.6777 20.7644 37.6777 20.9783 37.6777C21.6912 37.6064 22.2615 37.1074 22.4041 36.4658L25.113 28.0536L22.8318 27.2695Z" fill="#E28539"/>
<path d="M23.7585 24.4179L22.9031 27.1269L16.9148 25.2021L16.8435 25.3447L25.113 27.9824L26.0398 25.1308L23.7585 24.4179Z" fill="#EDB248"/>
<path d="M22.9743 41.6698C22.8318 41.6698 22.6179 41.6698 22.4753 41.5986L11.0691 37.8915C10.2136 37.6064 9.71459 36.6796 9.99974 35.8241C10.2136 35.1825 10.8552 34.6835 11.4968 34.6835L15.6316 21.7802L17.7702 22.4931L14.1345 33.7568C13.7068 35.1825 14.6335 35.6816 15.0613 35.8241L20.4079 37.5351C20.5505 37.6064 20.7644 37.6064 20.9783 37.6064C21.6911 37.5351 22.2615 37.0361 22.404 36.3945L26.0398 25.0595L28.1785 25.7724L23.9724 38.6757C24.5427 39.1034 24.7566 39.8163 24.5427 40.4579C24.3288 41.1708 23.6872 41.6698 22.9743 41.6698Z" fill="white"/>
<path d="M21.9763 37.1786L20.6931 41.0282L22.4753 41.5986C22.6179 41.6698 22.8318 41.6698 22.9744 41.6698C23.6873 41.6698 24.3289 41.2421 24.5427 40.5292C24.7566 39.8876 24.5427 39.1747 23.9724 38.747L28.1072 25.8437L25.9685 25.1308L22.3328 36.4658C22.2615 36.6796 22.1902 36.9648 21.9763 37.1786Z" fill="#F7EEBA"/>
<path d="M27.1091 25.3447C26.8953 25.3447 26.6814 25.3447 26.4675 25.2734L17.5564 22.4218C17.1287 22.2792 16.7009 21.9941 16.4158 21.6376C16.2019 21.2812 16.1306 20.9247 16.2019 20.497C16.4158 19.9267 17.0574 19.499 17.699 19.5702C17.9128 19.5702 18.198 19.6415 18.4119 19.7128H18.4832C18.9109 18.7148 19.9089 18.1445 20.9783 18.2158C21.406 18.2158 21.7625 18.287 22.1189 18.4296C23.0457 18.7148 23.8298 19.3564 24.2576 20.2119C24.4001 20.2119 24.5427 20.1406 24.6853 20.2119C24.9705 20.2119 25.2556 20.2831 25.5408 20.3544C26.1111 20.497 26.5388 20.8535 26.8953 21.3525C27.1804 21.7089 27.2517 22.2079 27.1804 22.6357V22.707V22.6357L27.2517 22.707C27.7507 22.8495 28.1785 23.206 28.3923 23.6337C28.5349 23.9189 28.6062 24.204 28.4636 24.4892C28.2498 25.0595 27.6794 25.3447 27.1091 25.3447Z" fill="white"/>
<path d="M28.3923 23.6337C28.1072 23.206 27.7507 22.8495 27.2517 22.707L27.1804 22.6357V22.5644C27.323 22.1367 27.1804 21.6376 26.8953 21.2812C26.5388 20.8535 26.1111 20.497 25.5408 20.2831C25.2556 20.2119 24.9705 20.1406 24.6853 20.1406C24.5427 20.1406 24.4001 20.1406 24.2576 20.1406C23.8298 19.2851 23.0457 18.5722 22.1189 18.3583C21.7625 18.2158 21.3347 18.1445 20.9783 18.1445C20.5505 18.1445 20.1228 18.2158 19.6951 18.4296C19.8376 18.4296 19.9089 18.5009 20.0515 18.5009C20.9783 18.7861 21.7625 19.4277 22.1902 20.2831C22.3328 20.2831 22.4753 20.2119 22.6179 20.2831C22.9031 20.2831 23.1882 20.3544 23.4734 20.4257C24.0437 20.5683 24.4714 20.9247 24.8279 21.4238C25.113 21.7802 25.1843 22.2792 25.113 22.707V22.7783V22.8495L25.1843 22.9208C25.6834 23.0634 26.1111 23.4199 26.325 23.8476C26.4675 24.1328 26.5388 24.4179 26.3962 24.7031C26.325 24.8456 26.2537 25.0595 26.1111 25.1308L26.4675 25.2734C26.6814 25.3447 26.8953 25.3447 27.1091 25.3447C27.6794 25.416 28.2498 25.0595 28.4636 24.4892C28.5349 24.204 28.5349 23.9189 28.3923 23.6337Z" fill="#F7EEBA"/>
<path d="M34.9509 41.6699C34.238 41.6699 33.5964 41.2421 33.3826 40.5292C33.1687 39.8876 33.3826 39.1747 33.9529 38.747L29.8181 25.8437L31.9568 25.1308L35.5925 36.4658C35.7351 37.1787 36.3054 37.6777 37.0183 37.6777C37.2322 37.6777 37.3748 37.6777 37.5886 37.6064L42.9353 35.8955C43.363 35.7529 44.2898 35.2538 43.8621 33.8281L41.0818 25.4872L41.0105 25.416V25.2021L40.0837 22.4218L42.2224 21.7089L46.4285 34.6835C47.3552 34.6835 48.0681 35.4677 47.9968 36.3945C47.9968 37.1074 47.4978 37.749 46.8562 37.8915L35.45 41.5986C35.3074 41.6699 35.0935 41.6699 34.9509 41.6699Z" fill="white"/>
<path d="M47.9255 35.8242C47.7117 35.1826 47.1414 34.6835 46.4285 34.6835L42.2937 21.7802L40.155 22.4931L41.0818 25.2734V25.3447V25.4872L41.1531 25.5585L43.7908 33.8281C43.8621 34.0419 43.9333 34.3271 43.9333 34.541L45.1453 38.4619L46.9275 37.8915C47.783 37.6064 48.2107 36.6796 47.9255 35.8242Z" fill="#F7EEBA"/>
<path d="M32.8464 28.0143L41.0575 25.3713L40.1182 22.4534L31.9072 25.0964L32.8464 28.0143Z" fill="#FBCF4C"/>
<path d="M38.0164 23.206L38.9431 26.0576L41.0818 25.3447L40.155 22.4931L38.0164 23.206Z" fill="#EDB248"/>
<path d="M30.8162 25.3447C30.2459 25.416 29.6756 25.0595 29.4617 24.4892C29.3905 24.204 29.3905 23.9189 29.533 23.6337C29.7469 23.206 30.1746 22.8496 30.6737 22.707H30.7449H30.8162V22.6357C30.6737 22.1367 30.7449 21.6376 31.0301 21.2812C31.3865 20.8535 31.8143 20.497 32.3846 20.2832C32.6697 20.2119 32.9549 20.1406 33.2401 20.1406C33.3826 20.1406 33.5252 20.1406 33.6678 20.1406C34.0955 19.2851 34.8797 18.5722 35.8065 18.3583C36.1629 18.2158 36.5906 18.1445 36.9471 18.1445C37.9451 18.0732 38.9432 18.6435 39.3709 19.5703H39.5135C39.7274 19.499 40.0125 19.4277 40.2264 19.4277C40.868 19.3564 41.5096 19.7128 41.7235 20.3544C41.866 20.7109 41.7947 21.1386 41.5096 21.4951C41.2244 21.9228 40.7967 22.208 40.369 22.2792L31.4578 25.1308C31.244 25.2734 31.0301 25.3447 30.8162 25.3447Z" fill="white"/>
<path d="M41.7234 20.4257C41.4382 19.8554 40.8679 19.4277 40.2263 19.499C40.0125 19.499 39.7273 19.5703 39.5134 19.6416H39.3709C38.9431 18.7148 37.9451 18.1445 36.947 18.2158C36.5193 18.2158 36.1628 18.2871 35.8064 18.4296C34.8796 18.7148 34.0955 19.3564 33.6677 20.2119C33.5251 20.2119 33.3826 20.1406 33.24 20.2119C32.9548 20.2119 32.6697 20.2832 32.3845 20.3544C31.8142 20.497 31.3865 20.8535 31.03 21.3525C30.8875 21.5664 30.7449 21.8515 30.7449 22.0654C30.8875 21.9941 30.9587 21.9941 31.1013 21.9228C31.3865 21.8515 31.6716 21.7802 31.9568 21.7802C32.0994 21.7802 32.2419 21.7802 32.3845 21.7802C32.8123 20.9248 33.5964 20.2119 34.5232 19.998C34.8796 19.8554 35.3074 19.7841 35.6638 19.7841C36.6619 19.7128 37.6599 20.2832 38.0876 21.2099H38.2302C38.4441 21.1386 38.7292 21.0673 38.9431 21.0673C39.5847 20.996 40.2263 21.3525 40.4402 21.9941C40.4402 22.1367 40.5115 22.208 40.5115 22.3505C40.9392 22.208 41.2957 21.9228 41.5095 21.5664C41.7947 21.2099 41.866 20.8535 41.7234 20.4257Z" fill="#F7EEBA"/>
<path d="M36.947 37.6777C36.2341 37.6064 35.6638 37.1074 35.5212 36.4658L32.8123 28.0537L41.0818 25.3447L43.7908 33.7568C44.2898 35.1826 43.2917 35.6816 42.864 35.8242L37.5173 37.5351C37.3035 37.6064 37.1609 37.6777 36.947 37.6777Z" fill="#F4A23F"/>
<path d="M43.7908 33.7568L41.0818 25.3447L38.9431 26.0576L41.6521 34.4697C42.0798 35.8242 41.2957 36.3232 40.8679 36.4658L42.864 35.8242C43.2917 35.6816 44.2185 35.2538 43.7908 33.7568Z" fill="#E28539"/>
<path d="M48.1394 24.4892C47.9256 23.705 47.4265 22.9921 46.7136 22.5644C46.2146 22.2792 45.573 22.2792 45.0027 22.4931L43.4343 22.9921L43.0066 21.5664C42.9353 21.3525 42.7927 21.1386 42.5076 21.1386C42.5789 20.8535 42.5076 20.5683 42.4363 20.2119C42.0086 19.1425 40.8679 18.5722 39.7986 18.8574C39.157 17.9306 38.0877 17.4316 36.947 17.5029C36.448 17.5029 36.0203 17.5742 35.5213 17.7167C34.5945 18.0019 33.739 18.6435 33.24 19.499C32.8836 19.499 32.5271 19.5703 32.1707 19.6415C31.4578 19.8554 30.8875 20.2831 30.4597 20.8535C30.1746 21.2812 30.032 21.7802 30.032 22.2792C29.6043 22.4931 29.2478 22.8496 29.0339 23.2773C28.8201 22.8496 28.4636 22.4931 27.9646 22.2792C27.9646 21.7802 27.822 21.2812 27.5369 20.8535C27.1091 20.2831 26.5388 19.8554 25.8259 19.6415C25.4695 19.5703 25.1131 19.499 24.7566 19.499C24.1863 18.6435 23.4021 18.0732 22.4754 17.788C22.0476 17.6455 21.5486 17.5742 21.0496 17.5742C19.9089 17.5029 18.9109 18.0019 18.198 18.9287C18.0554 18.9287 17.9129 18.8574 17.699 18.9287C16.7722 18.8574 15.8455 19.4277 15.489 20.3544C15.4177 20.6396 15.3464 20.9247 15.4177 21.2812C15.2039 21.3525 14.99 21.4951 14.9187 21.7089L14.491 23.1347L12.9226 22.6357C12.3523 22.4218 11.782 22.4931 11.2117 22.707C10.4988 23.1347 9.99977 23.8476 9.7859 24.6318L8.43141 28.7665C8.28883 29.123 8.21754 29.622 8.28883 30.121C8.28883 31.0478 8.93043 31.9033 9.85719 32.1171L11.4255 32.6162L10.9265 34.0419C9.64332 34.3984 8.93043 35.6816 9.28688 36.8935C9.50075 37.6777 10.0711 38.248 10.8552 38.5331L22.2615 42.2402C22.4754 42.3115 22.7605 42.3828 22.9744 42.3828C24.2576 42.3828 25.3269 41.3134 25.3269 40.0302C25.3269 39.4599 25.1131 38.9609 24.7566 38.5331L28.7488 26.0576C28.8201 25.8437 28.7488 25.6298 28.6775 25.4872C28.7488 25.416 28.8201 25.2734 28.8914 25.2021C28.9627 25.2734 29.0339 25.416 29.1052 25.4872C28.9627 25.6298 28.9627 25.8437 29.0339 26.0576L33.0974 38.5331C32.242 39.5312 32.3845 41.0283 33.3826 41.8124C34.0242 42.3115 34.8797 42.5253 35.5925 42.2402L46.9988 38.5331C48.2107 38.1767 48.9236 36.8222 48.5672 35.6103C48.3533 34.8261 47.7117 34.2558 46.9275 34.0419L46.4285 32.6162L47.9968 32.1171C48.8523 31.832 49.4939 31.0478 49.5652 30.121C49.5652 29.622 49.4939 29.123 49.3513 28.624L48.1394 24.4892ZM10.2849 30.7626C9.92848 30.6913 9.71461 30.4062 9.71461 30.0497C9.71461 29.6933 9.71461 29.4081 9.85719 29.0517L11.1404 24.9169C11.2117 24.4892 11.4968 24.1328 11.8533 23.8476C12.0672 23.7763 12.281 23.7763 12.4949 23.8476L14.0632 24.3466L11.8533 31.2617L10.2849 30.7626ZM23.2595 38.5331C23.1882 38.8183 23.2595 39.1035 23.4734 39.3173C23.7586 39.5312 23.9011 39.9589 23.8298 40.3154C23.6873 40.8144 23.117 41.0996 22.6892 40.8857L11.283 37.1787C10.7839 37.0361 10.4988 36.5371 10.6414 36.038C10.7839 35.6816 11.0691 35.3964 11.4968 35.3964C11.782 35.3964 12.0672 35.1826 12.1384 34.8974L16.1306 22.6357L16.9148 22.9208L16.2019 25.1308L13.4929 33.5429C12.9939 34.6122 13.4929 35.8955 14.5623 36.3945C14.7048 36.4658 14.7761 36.4658 14.9187 36.5371L20.2654 38.248C20.4793 38.3193 20.7644 38.3906 21.0496 38.3906C22.0476 38.3193 22.9031 37.6777 23.117 36.6796L25.8259 28.2675L26.5388 26.0576L27.323 26.2714L23.2595 38.5331ZM24.1863 28.4814L21.6912 36.1806C21.6199 36.3945 21.406 36.8935 20.9783 36.8935C20.8357 36.8935 20.7644 36.8935 20.6218 36.8222L15.2752 35.1113C14.7761 34.9687 14.6336 34.6122 14.8474 33.9706L17.3425 26.2001L24.1863 28.4814ZM17.7703 24.9169L18.2693 23.3486L23.117 24.9169L25.1131 25.5585L24.614 27.1269L17.7703 24.9169ZM26.6814 24.5605L17.7703 21.7089C17.4851 21.6376 17.2 21.4238 16.9861 21.2099C16.8435 21.0673 16.8435 20.8535 16.8435 20.7109C16.9861 20.4257 17.3425 20.2831 17.6277 20.2831C17.7703 20.2831 17.9841 20.2831 18.1267 20.3544H18.2693C18.6257 20.497 19.0535 20.2831 19.1961 19.9267C19.1961 19.9267 19.1961 19.9267 19.1961 19.8554C19.4812 19.2138 20.1941 18.7861 20.9783 18.8574C21.3347 18.8574 21.6199 18.9287 21.905 18.9999C22.6179 19.2138 23.2595 19.7128 23.5447 20.4257C23.6873 20.7109 23.9724 20.9247 24.3289 20.8535C24.614 20.7822 24.9705 20.8535 25.2556 20.9247C25.6834 21.0673 25.9685 21.2812 26.2537 21.6376C26.3963 21.8515 26.4675 22.0654 26.4675 22.3505L26.3963 22.4218C26.2537 22.7783 26.3963 23.206 26.7527 23.3486H26.824H26.8953C27.4656 23.4912 27.7507 23.9189 27.6795 24.204C27.6082 24.4892 27.1804 24.7031 26.6814 24.5605ZM30.1033 24.2753C30.032 23.9902 30.3172 23.5624 30.8875 23.4199H30.9588C31.3152 23.3486 31.6004 22.9208 31.4578 22.5644V22.4931V22.4218C31.3865 22.208 31.4578 21.9228 31.6004 21.7089C31.8142 21.3525 32.1707 21.1386 32.5984 20.996C32.8836 20.9247 33.24 20.8535 33.5252 20.9247C33.8816 20.996 34.1668 20.7822 34.3093 20.497C34.6658 19.7841 35.2361 19.2851 35.949 19.0712C36.2341 18.9999 36.5906 18.9287 36.8757 18.9287C37.5886 18.8574 38.3015 19.2138 38.658 19.8554C38.7293 20.0693 38.8718 20.2119 39.0144 20.2831C39.2283 20.3544 39.4422 20.3544 39.5847 20.2831L39.656 20.2119C40.2263 19.998 40.8679 20.2119 40.9392 20.5683C41.0105 20.7822 40.9392 20.9247 40.7966 21.0673C40.5828 21.3525 40.3689 21.4951 40.0125 21.5664L31.1013 24.4179C30.7449 24.7031 30.2459 24.5605 30.1033 24.2753ZM40.5828 26.2714L43.0779 33.9706C43.2918 34.6122 43.1492 34.9687 42.6502 35.1113L37.3035 36.8935C37.2322 36.8935 37.0896 36.9648 36.947 36.9648C36.5193 36.9648 36.3054 36.4658 36.2341 36.2519L33.739 28.4814L40.5828 26.2714ZM33.3113 27.1269L32.8123 25.5585L34.8084 24.9169L39.656 23.3486L40.155 24.9169L33.3113 27.1269ZM47.2127 36.038C47.3552 36.5371 47.0701 37.0361 46.6423 37.2499L35.2361 40.957C34.7371 41.0996 34.2381 40.8144 34.0242 40.3867C33.8816 40.0302 34.0242 39.6025 34.3806 39.3886C34.5945 39.1747 34.7371 38.8896 34.5945 38.6044L30.6736 26.3427L31.4578 26.1288L32.1707 28.3388L34.8797 36.7509C35.0935 37.749 35.949 38.4619 36.947 38.4619C37.2322 38.4619 37.4461 38.3906 37.7312 38.3193L43.0779 36.6083C44.2185 36.3232 44.8601 35.1113 44.575 33.9706C44.575 33.8281 44.5037 33.7568 44.4324 33.6142L41.7234 25.2021L41.0105 22.9921L41.7947 22.707L45.7156 34.9687C45.7869 35.2539 46.072 35.4677 46.3572 35.4677C46.7849 35.4677 47.1414 35.6816 47.2127 36.038ZM48.2107 29.9785C48.2107 30.3349 47.9256 30.6201 47.6404 30.6914L46.072 31.2617L43.8621 24.2753L45.4304 23.7763C45.6443 23.705 45.8582 23.705 46.072 23.7763C46.4285 24.0615 46.7136 24.4179 46.7849 24.8456L48.1394 29.0517C48.2107 29.3369 48.2107 29.6933 48.2107 29.9785Z" fill="#4A2328"/>
<path d="M28.8201 18.3583C29.2478 18.3583 29.533 18.0732 29.533 17.6454V12.1562C29.533 11.7285 29.2478 11.4433 28.8201 11.4433C28.3923 11.4433 28.1072 11.7285 28.1072 12.1562V17.6454C28.1072 18.0732 28.4636 18.3583 28.8201 18.3583Z" fill="#4A2328"/>
<path d="M30.8875 18.8574C31.2439 19.0712 31.6717 18.9286 31.8142 18.5722L34.6658 13.0829C34.8084 12.7265 34.6658 12.2988 34.3094 12.1562C33.9529 12.0136 33.5965 12.1562 33.4539 12.4413L30.6023 17.9306C30.4597 18.2158 30.6023 18.6435 30.8875 18.8574Z" fill="#4A2328"/>
<path d="M25.7547 18.5722C25.8972 18.9287 26.325 19.0712 26.6814 18.9287C27.0379 18.7861 27.1804 18.3583 27.0379 18.0019C27.0379 18.0019 27.0379 17.9306 26.9666 17.9306L24.115 12.4413C23.9011 12.0849 23.4734 12.0136 23.117 12.2275C22.8318 12.4413 22.6892 12.7978 22.8318 13.0829L25.7547 18.5722Z" fill="#4A2328"/>
</g>
<defs>
<clipPath id="clip0">
<rect width="41.3043" height="41.3043" fill="white" transform="translate(8.26086 6.26086)"/>
</clipPath>
</defs>
</svg>
